<svg xmlns="http://www.w3.org/2000/svg" viewBox="0 0 207.28 207.53"><defs><style>.cls-1{fill:#fff;}</style></defs><title>Asset 4</title><g id="Layer_2" data-name="Layer 2"><g id="Layer_1-2" data-name="Layer 1"><g id="circle9434"><path class="cls-1" d="M177.7,88.63a74.53,74.53,0,0,0-3.92-13l18.46-26.48-18.5-22-.9-1.1-29.2,13.69a74,74,0,0,0-10.92-5.6L127.1,2.59,98.49.13,97.08,0,86,30.49a73.9,73.9,0,0,0-10.52,3.36L49.17,15.47,27.21,34l-1.1.91,13.59,29a74.21,74.21,0,0,0-5.59,10.85L2.59,80.35.14,109,0,110.37l30.29,11a74.33,74.33,0,0,0,3.49,11L15.55,158.43,34,180.4l.9,1.09L63.79,168a74.33,74.33,0,0,0,10.79,5.55l5.59,31.41,28.61,2.45,1.41.14,10.91-30.15a74.17,74.17,0,0,0,11.19-3.56l26.27,18.34,22-18.5,1.09-.9L168,143.63a74.41,74.41,0,0,0,4.54-8.54l32.17-5.73,2.45-28.61.14-1.41Zm-123,56.6A64.16,64.16,0,1,1,145.09,153,64.23,64.23,0,0,1,54.68,145.23Z"/></g></g></g></svg>