<?xml version="1.0" encoding="utf-8"?>
<svg version="1.1" xmlns="http://www.w3.org/2000/svg" xmlns:xlink="http://www.w3.org/1999/xlink" height="236" width="287">
  <defs>
    <path id="path-6" opacity="1" fill-rule="evenodd" d="M144.00003999999996 184L143.2270341693523 188.64037602544968L133 188.64037602544968L133.78276745232517 184L144.00003999999996 184Z"/>
    <mask id="mask-7" maskUnits="userSpaceOnUse" maskContentUnits="userSpaceOnUse" x="-18" y="0">
      <rect opacity="1" x="-18" y="0" width="287" height="236" fill="black"/>
      <use xlink:href="#path-6" fill="white"/>
    </mask>
    <path id="path-8" opacity="1" fill-rule="evenodd" d="M143.26167258698192 188.59909113154123L137.92772564054343 190.00005999999982L133.10177364138468 188.59909113154123L143.26167258698192 188.59909113154123Z"/>
    <mask id="mask-9" maskUnits="userSpaceOnUse" maskContentUnits="userSpaceOnUse" x="-18" y="0">
      <rect opacity="1" x="-18" y="0" width="287" height="236" fill="black"/>
      <use xlink:href="#path-8" fill="white"/>
    </mask>
    <path id="path-10" opacity="1" fill-rule="evenodd" d="M156.0664893617021 128L147.85497496871085 128L144.43351063829783 149.0808823529412L152.3028785982478 149.0808823529412L156.0664893617021 128Z"/>
    <filter id="filter-11" filterUnits="userSpaceOnUse" x="-50%" y="-50%" width="200%" height="200%">
      <feOffset in="SourceAlpha" result="shadow-1-feOffset-shadow" dx="0" dy="2"/>
      <feGaussianBlur in="shadow-1-feOffset-shadow" result="shadow-1-feGaussianBlur-shadow" stdDeviation="2"/>
      <feColorMatrix in="shadow-1-feGaussianBlur-shadow" result="shadow-1-feColorMatrix-shadow" type="matrix" values="0 0 0 0 0  0 0 0 0 0  0 0 0 0 0  0 0 0 0.5 0"/>
    </filter>
    <mask id="mask-12" maskUnits="userSpaceOnUse" maskContentUnits="userSpaceOnUse" x="-18" y="0">
      <rect opacity="1" x="-18" y="0" width="287" height="236" fill="black"/>
      <use xlink:href="#path-10" fill="white"/>
    </mask>
    <path id="path-20" opacity="1" fill-rule="evenodd" d="M153.5 151L140.7941176470588 151L135.5 174.5L147.6764705882353 174.5L153.5 151Z"/>
    <mask id="mask-21" maskUnits="userSpaceOnUse" maskContentUnits="userSpaceOnUse" x="-18" y="0">
      <rect opacity="1" x="-18" y="0" width="287" height="236" fill="black"/>
      <use xlink:href="#path-20" fill="white"/>
    </mask>
    <path id="path-34" opacity="1" fill-rule="evenodd" d="M147 193L145.7350859677185 202L129 202L130.2808875369411 193L147 193Z"/>
    <mask id="mask-35" maskUnits="userSpaceOnUse" maskContentUnits="userSpaceOnUse" x="-18" y="0">
      <rect opacity="1" x="-18" y="0" width="287" height="236" fill="black"/>
      <use xlink:href="#path-34" fill="white"/>
    </mask>
    <ellipse id="ellipse-37" opacity="1" rx="9.834129615826555" ry="9.696895524106424" cx="138.8334439526285" cy="162.03419461161025"/>
    <mask id="mask-38" maskUnits="userSpaceOnUse" maskContentUnits="userSpaceOnUse" x="-18" y="0">
      <rect opacity="1" x="-18" y="0" width="287" height="236" fill="black"/>
      <use xlink:href="#ellipse-37" fill="white"/>
    </mask>
    <path id="path-39" opacity="1" fill-rule="evenodd" d="M166 189L164.52426696233823 204L145 204L146.49436879309792 189L166 189Z"/>
    <mask id="mask-40" maskUnits="userSpaceOnUse" maskContentUnits="userSpaceOnUse" x="-18" y="0">
      <rect opacity="1" x="-18" y="0" width="287" height="236" fill="black"/>
      <use xlink:href="#path-39" fill="white"/>
    </mask>
    <path id="path-41" opacity="1" fill-rule="evenodd" d="M160 132L158.66481296592508 139.63289990166066L141 139.63289990166066L142.35204795566003 132L160 132Z"/>
    <mask id="mask-42" maskUnits="userSpaceOnUse" maskContentUnits="userSpaceOnUse" x="-18" y="0">
      <rect opacity="1" x="-18" y="0" width="287" height="236" fill="black"/>
      <use xlink:href="#path-41" fill="white"/>
    </mask>
  </defs>
  <g transform="translate(18, 0)" opacity="1">
    <g opacity="1">
      <g opacity="1">
        <path fill-opacity="0" stroke="rgb(255,203,2)" stroke-opacity="1" stroke-width="3.5" stroke-linecap="butt" stroke-linejoin="miter" opacity="1" fill-rule="evenodd" d="M154.35714285714306 194L131.761904761905 194C124.02991826427387 194 117.76190476190499 187.7319864976311 117.76190476190499 180L117.76190476190499 180C117.76190476190499 172.2680135023689 124.02991826427387 166 131.761904761905 166L170.23809523809547 166"/>
      </g>
      <g opacity="1">
        <path fill="rgb(255,255,255)" fill-opacity="1" opacity="1" fill-rule="evenodd" d="M156 161L156.70236790427725 164.95238095238096L157.9900423954523 169L166.08028010768317 169L173 169L173 161L156 161Z"/>
      </g>
      <g opacity="1">
        <path fill-opacity="0" stroke="rgb(255,203,2)" stroke-opacity="1" stroke-width="3.5" stroke-linecap="butt" stroke-linejoin="miter" opacity="1" fill-rule="evenodd" d="M164 200L131.5 200C120.17816262846874 200 111 190.82183737153127 111 179.5L111 179.5C111 168.17816262846873 120.17816262846874 159 131.5 159L187 159"/>
      </g>
      <g opacity="1">
        <rect fill="rgb(255,255,255)" fill-opacity="1" opacity="1" x="156" y="153" width="37" height="8"/>
      </g>
      <g>
        <text opacity="1" font-size="0" transform="translate(33, 0)">
          <tspan fill="rgb(0,0,0)" font-size="180" font-family="IBM Plex Serif SemiBold" font-weight="600" style="white-space: pre;text-transform: none" font-style="italic" x="0.5300000000000011" y="184">Y</tspan>
        </text>
      </g>
      <g opacity="1">
        <use xlink:href="#path-6" fill="rgb(255,255,255)" fill-opacity="1"/>
        <use xlink:href="#path-6" fill-opacity="0" stroke="rgb(0,0,0)" stroke-opacity="1" stroke-width="4" stroke-linecap="butt" stroke-linejoin="miter" mask="url(#mask-7)"/>
      </g>
      <g opacity="1">
        <use xlink:href="#path-8" fill="rgb(0,0,0)" fill-opacity="1"/>
        <use xlink:href="#path-8" fill-opacity="0" stroke="rgb(0,0,0)" stroke-opacity="1" stroke-width="2" stroke-linecap="butt" stroke-linejoin="miter" mask="url(#mask-9)"/>
      </g>
      <g opacity="1">
        <use xlink:href="#path-10" fill="black" filter="url(#filter-11)" stroke="black" stroke-opacity="1" stroke-width="3"/>
        <use xlink:href="#path-10" fill="rgb(255,255,255)" fill-opacity="1"/>
        <use xlink:href="#path-10" fill-opacity="0" stroke="rgb(0,0,0)" stroke-opacity="1" stroke-width="6" stroke-linecap="butt" stroke-linejoin="miter" mask="url(#mask-12)"/>
      </g>
      <g>
        <text opacity="1" font-size="0" transform="translate(119, 0)">
          <tspan fill="rgb(255,203,2)" font-size="180" font-family="IBM Plex Serif SemiBold" font-weight="600" style="white-space: pre;text-transform: none" font-style="italic" x="14.25" y="184">S</tspan>
        </text>
      </g>
      <g>
        <text opacity="1" font-size="0" transform="translate(116, 0)">
          <tspan fill="rgb(255,203,2)" font-size="180" font-family="IBM Plex Serif SemiBold" font-weight="600" style="white-space: pre;text-transform: none" font-style="italic" x="14.25" y="184">S</tspan>
        </text>
      </g>
      <g>
        <text opacity="1" font-size="0" transform="translate(121, 0)">
          <tspan fill="rgb(255,203,2)" font-size="180" font-family="IBM Plex Serif SemiBold" font-weight="600" style="white-space: pre;text-transform: none" font-style="italic" x="14.25" y="184">S</tspan>
        </text>
      </g>
      <g opacity="1">
        <path fill="rgb(0,0,0)" fill-opacity="1" opacity="1" fill-rule="evenodd" d="M140.45999175159156 152.47922282916588L140.78860816828518 151.00604171774063L147.3654394309274 151.00604171774063L148.49392884431268 147.05808213440534L136.19964710977257 147.10317468259706L134.66209570231288 153.23934223422228L140.45999175159156 152.47922282916588Z"/>
      </g>
      <g>
        <text opacity="1" font-size="0" transform="translate(31, 0)">
          <tspan fill="rgb(0,0,0)" font-size="180" font-family="IBM Plex Serif SemiBold" font-weight="600" style="white-space: pre;text-transform: none" font-style="italic" x="0.5300000000000011" y="184">Y</tspan>
        </text>
      </g>
      <g>
        <text opacity="1" font-size="0" transform="translate(28, 0)">
          <tspan fill="rgb(0,0,0)" font-size="180" font-family="IBM Plex Serif SemiBold" font-weight="600" style="white-space: pre;text-transform: none" font-style="italic" x="0.5300000000000011" y="184">Y</tspan>
        </text>
      </g>
      <g>
        <text opacity="1" font-size="0" transform="translate(33, 0)">
          <tspan fill="rgb(0,0,0)" font-size="180" font-family="IBM Plex Serif SemiBold" font-weight="600" style="white-space: pre;text-transform: none" font-style="italic" x="0.5300000000000011" y="184">Y</tspan>
        </text>
      </g>
      <g opacity="1">
        <use xlink:href="#path-20" fill="rgb(255,255,255)" fill-opacity="1"/>
        <use xlink:href="#path-20" fill-opacity="0" stroke="rgb(255,255,255)" stroke-opacity="1" stroke-width="2" stroke-linecap="butt" stroke-linejoin="miter" mask="url(#mask-21)"/>
      </g>
      <g opacity="1">
        <path fill="rgb(0,0,0)" fill-opacity="1" opacity="1" fill-rule="evenodd" d="M152 180.68290972178414L151.04527285133133 184L127 184L127.95835004403001 180.6331167030496L152 180.68290972178414Z"/>
      </g>
      <g opacity="1">
        <rect fill="rgb(255,255,255)" fill-opacity="1" opacity="1" x="127" y="179" width="81" height="2"/>
      </g>
      <g opacity="1">
        <rect fill="rgb(255,203,2)" fill-opacity="1" opacity="1" x="73" y="181" width="-35" height="6"/>
      </g>
      <g opacity="1">
        <rect fill="rgb(255,255,255)" fill-opacity="1" opacity="1" x="73" y="184" width="36" height="1"/>
      </g>
      <g opacity="1">
        <path fill="rgb(255,203,2)" fill-opacity="1" opacity="1" fill-rule="evenodd" d="M140 54L138.5324977413307 58.675157332366425L137.53523501155962 62L107 62L109.26660376523981 54L140 54Z"/>
      </g>
      <g opacity="1">
        <path fill="rgb(255,203,2)" fill-opacity="1" opacity="1" fill-rule="evenodd" d="M223 61L223.75598601204175 59.24681600036259L224.26972741828746 58L240 58L238.83235563608858 61L223 61Z"/>
      </g>
      <g transform="translate(51.74811380450428, 58.30000825515948) scale(-1, 1) translate(-51.74811380450428, -58.30000825515948)" opacity="1">
        <path fill="rgb(255,203,2)" fill-opacity="1" opacity="1" fill-rule="evenodd" d="M72.49569694611962 54L70.65041663568027 59.025803780836256L69.39642927810694 62.60001651031896L31.000530662888934 62.60001651031896L33.85062460642902 54L72.49569694611962 54Z"/>
      </g>
      <g opacity="1">
        <rect fill="rgb(255,255,255)" fill-opacity="1" opacity="1" x="-18" y="61" width="3" height="2"/>
      </g>
      <g opacity="1">
        <rect fill="rgb(255,255,255)" fill-opacity="1" opacity="1" x="23" y="61" width="225" height="2"/>
      </g>
      <g opacity="1">
        <path fill="rgb(0,0,0)" fill-opacity="1" opacity="1" fill-rule="evenodd" d="M172.99744743709118 60.99819913464245L222.1329390810729 60.99819913464245L221.1217931097645 60.34606436831736L220.4235934881732 59.94912652293519L219.61540351523536 59.531936746666105L218.77373821797462 59.139049287461305L217.93685510990287 58.778564917675396L216.95650632616167 58.40997977553481L215.53619613703418 57.93203420660518L214.4745501370803 57.62015447094777L213.269438461457 57.30827473529029L211.90651454259728 57.01664693051973L210.75400694805276 56.793875690764374L209.48672681297268 56.591356381895935L208.13336727249094 56.41718977626902L206.64610643471772 56.255174329174274L205.65619327259856 56.182267377981596L204.26935840779396 56.0931588820795L202.95425638082406 56.044554247951034L201.28049016468057 56L199.74540743501754 56.044554247951034L198.33466162426802 56.044554247951034L196.81392546217194 56.0931588820795L195.43665497574528 56.182267377981596L193.963740705539 56.307829349480045L193.28945202989263 56.36048436978585L191.8547952731982 56.49414711363904L190.4392672732597 56.66021294691119L188.94722424629748 56.862732255779655L187.3977949490675 57.09360426788972L186.13051481398742 57.30827473529029L184.8010662194506 57.563449064464564L183.44292448977987 57.846976096880425L182.0465252465973 58.16695660489261L180.82706700340702 58.46668518201795L179.64586627372861 58.778564917675396L178.7181215710662 59.04184001920441L177.9003672197504 59.29296396220131L176.95349376033207 59.580541380794536L176.00662030091377 59.892421116451985L175.20321251716487 60.1678473765131L174.72021140907776 60.34606436831736L174.23721030099063 60.520230973944244L172.99744743709118 60.99819913464245Z"/>
      </g>
      <g opacity="1">
        <path fill="rgb(0,0,0)" fill-opacity="1" opacity="1" fill-rule="evenodd" d="M204 180.82033428782273L154.1354916439817 180.82033428782273L155.16163985271012 181.62661966113774L155.870198568623 182.11738506021365L156.6903795480016 182.63318951026292L157.5445325206089 183.11894709914418L158.3938323513264 183.5646422064683L159.3887264387383 184.02035293418166L160.83010958001313 184.6112745371507L161.9075070795519 184.99687592213894L163.1304988357851 185.38247730712723L164.51364427438213 185.7430396411422L165.68325146982738 186.01846920184812L166.96933407062812 186.26885971158072L168.34277322544557 186.4841955499508L169.85210035317778 186.68450795773688L170.85670072436932 186.77464854124068L172.26411187241547 186.88482036552298L173.59872589211437 186.94491408785885L175.29732555354934 187L176.8551841001797 186.94491408785885L178.28686095767492 186.94491408785885L179.83016007863583 186.88482036552298L181.22786494290233 186.77464854124068L182.7226326449651 186.61940642520642L183.4069256514289 186.55430489267596L184.8628682183732 186.38904715625242L186.29939821775818 186.18372693827166L187.81357848738023 185.933336428539L189.38599645968003 185.64789124744382L190.67207906048083 185.38247730712723L192.02125250584916 185.06698526486412L193.39954480255642 184.7164385512384L194.81666223438216 184.32082154586087L196.0542134162848 183.95024359145657L197.2529394630689 183.5646422064683L198.19444898969286 183.23913454381588L199.0243362528511 182.92865031174742L199.98525834703432 182.5730957879271L200.94618044121754 182.18749440293882L201.76150827870632 181.84696330970246L202.25167560957755 181.62661966113774L202.74184294044878 181.41128382276767L204 180.82033428782273Z"/>
      </g>
      <g opacity="1">
        <path fill="rgb(0,0,0)" fill-opacity="1" opacity="1" fill-rule="evenodd" d="M249 54.99999999999999L248.0344827586207 58.5L247.3427161092191 60.99999999999998L235 60.99999999999998L235.91618901232795 54.99999999999999L249 54.99999999999999Z"/>
      </g>
      <g opacity="1">
        <use xlink:href="#path-34" fill="rgb(255,255,255)" fill-opacity="1"/>
        <use xlink:href="#path-34" fill-opacity="0" stroke="rgb(0,0,0)" stroke-opacity="1" stroke-width="7" stroke-linecap="butt" stroke-linejoin="miter" mask="url(#mask-35)"/>
      </g>
      <g opacity="1">
        <path fill="rgb(0,0,0)" fill-opacity="1" opacity="1" fill-rule="evenodd" d="M136.19354522862386 171.3547112822862L135.51416796610158 174.49683112145175L141.34288449956975 174.49683112145175L140.24639327050147 178.94050610241257L128.2535348801262 179.00149482006873L131.0430697545191 167.77261270763924L136.19354522862386 171.3547112822862Z"/>
      </g>
      <g opacity="1">
        <use xlink:href="#ellipse-37" fill="rgb(255,255,255)" fill-opacity="1"/>
        <use xlink:href="#ellipse-37" fill-opacity="0" stroke="rgb(0,0,0)" stroke-opacity="1" stroke-width="8.4" stroke-linecap="butt" stroke-linejoin="miter" mask="url(#mask-38)"/>
      </g>
      <g opacity="1">
        <use xlink:href="#path-39" fill="rgb(255,255,255)" fill-opacity="1"/>
        <use xlink:href="#path-39" fill-opacity="0" stroke="rgb(255,255,255)" stroke-opacity="1" stroke-width="7" stroke-linecap="butt" stroke-linejoin="miter" mask="url(#mask-40)"/>
      </g>
      <g opacity="1">
        <use xlink:href="#path-41" fill="rgb(255,255,255)" fill-opacity="1"/>
        <use xlink:href="#path-41" fill-opacity="0" stroke="rgb(0,0,0)" stroke-opacity="1" stroke-width="6" stroke-linecap="butt" stroke-linejoin="miter" mask="url(#mask-42)"/>
      </g>
      <g opacity="1">
        <path fill-opacity="0" stroke="rgb(255,255,255)" stroke-opacity="1" stroke-width="1" stroke-linecap="butt" stroke-linejoin="miter" opacity="1" fill-rule="evenodd" d="M128 202L145.52851558519478 202"/>
      </g>
      <g opacity="1">
        <path fill="rgb(0,0,0)" fill-opacity="1" opacity="1" fill-rule="evenodd" d="M137.88416780586536 192.2512707298427L137.4771219640077 196.45026994058492L142.98295256176664 196.45026994058492L142.68302404671365 198.52834608059513L137.22004037967656 198.52834608059513L136.94153532998445 201.50620776576437L145.29668682074706 201.50620776576437L146.19647236590612 192.2512707298427L137.88416780586536 192.2512707298427Z"/>
      </g>
    </g>
    <g opacity="1">
      <path fill="rgb(0,0,0)" fill-opacity="1" opacity="1" fill-rule="evenodd" d="M151.3532960852364 131.99261469485452L142.36002843611695 131.99261469485452L140.99653919413288 139.63768947946414L149.93958126189324 139.63768947946414L150.3741983889739 136.64801259385487L144.58745040274138 136.64801259385487L144.87626342432995 135.01393339693138L150.63299260610114 135.01393339693138L151.3532960852364 131.99261469485452Z"/>
    </g>
    <g opacity="1">
      <path fill="rgb(249,249,249)" fill-opacity="1" opacity="1" fill-rule="evenodd" d="M47 179L108.28832543848185 179L107.99521755768825 181L47 181L47 179Z"/>
    </g>
    <g opacity="1">
      <path fill="rgb(0,0,0)" fill-opacity="1" opacity="1" fill-rule="evenodd" d="M133.20393439399527 197.31853203194046L133.03985778284226 198.48919777512938L142.68559565304307 198.48919777512938L142.84575190304307 197.41497902512938L145.69603621531385 197.41497902512938L145.29866782426336 201.50418922418373L129.06811237454113 201.50418922418373L129.54154668186115 198.1603000132019L129.68899537149562 197.09022674688097L133.20393439399527 197.31853203194046Z"/>
    </g>
  </g>
</svg>