<svg xmlns="http://www.w3.org/2000/svg" viewBox="0 0 162.41 209.9"><defs><style>.cls-1{fill:#fff;}</style></defs><title>Asset 2</title><g id="Layer_2" data-name="Layer 2"><g id="Layer_1-2" data-name="Layer 1"><polygon class="cls-1" points="60.27 126.52 118.12 126.58 118.12 120.16 111.83 120.09 111.55 81.6 105.4 81.6 105.4 120.16 98.7 120.16 98.7 68.6 92.27 68.6 92.27 120.09 85.91 120.09 85.91 81.6 79.49 81.6 79.42 120.09 73.13 120.09 73.13 75.45 66.56 75.45 66.56 120.09 60.13 120.09 60.27 126.52"/><path class="cls-1" d="M89.12,52.51a46.6,46.6,0,1,1-46.59,46.6,46.65,46.65,0,0,1,46.59-46.6m0-6.28A52.88,52.88,0,1,0,142,99.11,52.88,52.88,0,0,0,89.12,46.23Z"/><path class="cls-1" d="M159.56,2.45C157.92.8,155.6,0,152.47,0H15.84V15.83H0V209.9H146.55V194.06h7.92V19.83h7.92v-2c0-.7,0-1.39,0-2.07C162.44,10.2,162.48,5.4,159.56,2.45Zm-17,203.45H4V19.83H15.84V194.06H142.55Zm7.92-15.84H19.84V4H150.42V19.6h.05ZM158.4,15.72v.11h-4V4.17a4.22,4.22,0,0,1,2.3,1.1C158.47,7,158.44,11.06,158.4,15.72Z"/></g></g></svg>