<svg id="Layer_1" data-name="Layer 1" xmlns="http://www.w3.org/2000/svg" viewBox="0 0 473.87 130.21"><defs><style>.cls-1{fill:#ed7014;}.cls-2{fill:#fff;}</style></defs><title>Fooder.io</title><path class="cls-1" d="M106.8,206.84h-73a28.6,28.6,0,0,1-28.6-28.6v-73a28.6,28.6,0,0,1,28.6-28.6h73a28.6,28.6,0,0,1,28.6,28.6v73A28.6,28.6,0,0,1,106.8,206.84Z" transform="translate(-5.19 -76.63)"/><path class="cls-2" d="M124.46,110.38c-.38-.54-.78-1-1.19-1.55a16.35,16.35,0,0,0,4-4.61,11,11,0,0,0,.55-1.21c.93-2.42,1.1-5.43-.83-7.73-2.7-3.21-6.1-.77-8.83,1.19-.69.49-2.8,2.14-5.72,4.44-8.57-3.66-19.63-4.13-31.5-1.51.7-2.41,1.37-4.73,1.95-6.81h0c.88-3.17-1-7.53-4-9.53a10.47,10.47,0,0,0-1.23-.69A5.61,5.61,0,0,0,73,82a4.73,4.73,0,0,0-2.79,3.41c-.57,2.42-1.86,9.53-3.41,18.45a103.36,103.36,0,0,0-20,11C17,135.79,3.19,167.75,16.13,186.23s47.68,16.48,77.59-4.47S137.4,128.85,124.46,110.38Z" transform="translate(-5.19 -76.63)"/><path class="cls-1" d="M65.9,139.95c-1.18.45-18.56,9.1-19.15,9.33-.25.09-.89.3-1-.06s.28-.77.5-1c.38-.31,20.93-12.88,27.21-15.26A5.64,5.64,0,0,1,77,133a21.76,21.76,0,0,1,3.5-3.61c.63-.58,35.37-28.43,39-31.06,2.78-2,4.47-3.15,5.79-1.57,1.7,2,.85,4.86,0,6.44a14.38,14.38,0,0,1-3.51,4c-4.66,3.61-36,22-41.28,27.57-1.28,1.35-1.22,3.29-1.33,5a10.76,10.76,0,0,1-1.81,6.1c-1.7,2.31-4.29,3.73-6.85,4.88-1,.44-17.58,6.86-20.1,7.47a1,1,0,0,1-.91,0c-.35-.23-.27-.65.11-.92.95-.65,18.61-8.56,20.09-9.68a.73.73,0,0,0,.07-1.12c-.42-.29-1.17.09-1.56.27l-2,.89-3,1.36-3.61,1.61-3.72,1.65-3.34,1.47-2.48,1.07c-.37.16-.76.32-1.14.46s-.83,0-.84-.4.51-.7.85-.89c1-.56,18.31-9.06,19-9.37s.9-.66.71-1.1-.71-.44-1.12-.25l-1.88.88-3,1.39L59,147.15l-3.71,1.72L52,150.41l-2.46,1.13-1.09.49c-.48.21-1.36.45-1.55-.07s.81-1,1.15-1.17c.51-.23,17.79-9.21,18.46-9.53.48-.23.82-.61.48-1.15C66.75,139.72,66.23,139.82,65.9,139.95Zm6.72-9.06c.17-.06.34-.11.52-.16A3.11,3.11,0,0,0,72,129.52c-1.29-.9-1.91-1.46-1.41-3.43.56-2.17,6.7-21.88,10.11-34.11.59-2.12-.72-5.49-3.1-7-2.85-1.85-4.75-1-5.21,1-1.13,4.84-5.38,29.68-8.66,49.36A84.26,84.26,0,0,1,72.62,130.89Zm-12.4,26.18c-.27,1.69-.44,2.82-.48,3.2-.1.84.05,1.53,1,1.75a2.81,2.81,0,0,0,2.5-1.14,23.26,23.26,0,0,0,4.12-6.54C65.32,155.13,62.74,156.12,60.22,157.07ZM49.84,184.25c-.67,0-1.66,0-2.9,0s-2.75-.16-4.45-.4a30.38,30.38,0,0,1-5.56-1.3,20.62,20.62,0,0,1-5.82-3,15.34,15.34,0,0,1-2.53-2.42,6.24,6.24,0,0,1-.55-.71l-.5-.68a15.43,15.43,0,0,1-.95-1.67,15.21,15.21,0,0,1-1.22-3.49,21.76,21.76,0,0,1-.45-3.84,27.5,27.5,0,0,1,1.16-8,42.82,42.82,0,0,1,3-7.64,65.43,65.43,0,0,1,4.09-7,88.25,88.25,0,0,1,9.09-11.21c2.93-3.08,5.56-5.5,7.44-7.15s3-2.58,3-2.58l-.88.53c-.57.35-1.44.84-2.48,1.55A73.06,73.06,0,0,0,41,131.62,66.13,66.13,0,0,0,36,136.5a60.89,60.89,0,0,0-5.06,6,55.16,55.16,0,0,0-4.53,7.16A45.44,45.44,0,0,0,23,157.87a30.58,30.58,0,0,0-1.17,8.91,19.14,19.14,0,0,0,2.29,8.6,17.92,17.92,0,0,0,1.09,1.76c.27.38.46.59.69.88a8.05,8.05,0,0,0,.7.79,17.83,17.83,0,0,0,3.11,2.61,20.45,20.45,0,0,0,6.68,2.84,26.82,26.82,0,0,0,6,.76,35,35,0,0,0,4.58-.17c1.26-.14,2.24-.3,2.9-.43l1-.18ZM112,125.83c0,.2,0,.46,0,.75s0,.63,0,1c0,.75-.1,1.67-.22,2.7a34.16,34.16,0,0,1-.67,3.43,36.47,36.47,0,0,1-1.23,3.93,45.39,45.39,0,0,1-1.81,4.22c-.69,1.44-1.49,2.88-2.34,4.32s-1.79,2.87-2.76,4.27-2,2.76-3,4.09-2.11,2.59-3.19,3.79-2.13,2.34-3.15,3.42l-1.51,1.54-1.44,1.42c-.94.89-1.8,1.72-2.58,2.43s-1.47,1.33-2,1.85c-1.14,1-1.79,1.61-1.79,1.61l.55-.3c.35-.21.89-.49,1.54-.89s1.46-.88,2.33-1.49c.44-.3.92-.61,1.41-1l1.52-1.12,1.63-1.26,1.69-1.42c1.14-1,2.32-2.08,3.48-3.26l.88-.89.86-.93c.59-.62,1.14-1.28,1.71-1.94,1.12-1.34,2.21-2.74,3.22-4.2a52.12,52.12,0,0,0,2.81-4.5,43,43,0,0,0,2.25-4.63,36.34,36.34,0,0,0,1.57-4.56c.11-.37.2-.74.28-1.1s.17-.72.24-1.08c.12-.71.25-1.4.32-2.07s.14-1.3.18-1.91,0-1.19,0-1.73,0-1-.09-1.52-.09-.89-.16-1.28-.13-.72-.19-1-.14-.53-.19-.73l-.17-.61Z" transform="translate(-5.19 -76.63)"/><path class="cls-1" d="M166.13,124.24c0-5.87,2.93-9.05,8.32-9.05h25.77c5.14,0,7.5,2.28,7.5,6.52v.49c0,4.48-2.37,6.77-7.5,6.77h-18v8.56H194.5c5.38,0,7.5,2.28,7.5,6.2v.33c0,4.24-2.2,6.61-7.5,6.61H182.76v10c0,5-2.45,7.58-7.18,7.58H173c-4.49,0-6.85-3.51-6.85-9.46Z" transform="translate(-5.19 -76.63)"/><path class="cls-1" d="M229.74,126.69c13.21,0,21.94,8.48,21.94,21.2s-8.81,21.2-22.18,21.2-22-8.32-22-21.28C207.48,135.17,216.36,126.69,229.74,126.69Zm-.16,30.42c5.06,0,8.81-3.91,8.81-9.21,0-5.46-3.67-9.38-8.81-9.38s-8.81,3.91-8.81,9.3S224.36,157.1,229.57,157.1Z" transform="translate(-5.19 -76.63)"/><path class="cls-1" d="M278.35,126.69c13.21,0,21.94,8.48,21.94,21.2s-8.81,21.2-22.18,21.2-22-8.32-22-21.28C256.08,135.17,265,126.69,278.35,126.69Zm-.16,30.42c5.06,0,8.81-3.91,8.81-9.21,0-5.46-3.67-9.38-8.81-9.38s-8.81,3.91-8.81,9.3S273,157.1,278.18,157.1Z" transform="translate(-5.19 -76.63)"/><path class="cls-1" d="M323.28,126.69A14.44,14.44,0,0,1,335,132.23v-19.9c0-.57,2.77-1.79,6-1.79,4.49,0,9.62,2.36,9.62,11.91v38.33c0,5.63-2.86,7.58-6.85,7.58h-1.63c-3.91,0-6.77-1.63-7.09-6.69a12.6,12.6,0,0,1-11.91,7.42c-11.09,0-18.43-8.73-18.43-21.28C304.69,134.84,312,126.69,323.28,126.69Zm4.24,30.25c4.32,0,7.5-2.69,7.5-7.1v-6.36a7.68,7.68,0,0,0-7.34-4.65c-4.89,0-8.16,3.43-8.16,9.05C319.53,153.27,322.8,156.94,327.52,156.94Z" transform="translate(-5.19 -76.63)"/><path class="cls-1" d="M358.19,128.89c0-.57,2.85-1.79,6-1.79,3.59,0,7.58,1.55,9,7.18,1.55-4.57,4.89-7.58,9.79-7.58,5.22,0,8.56,3.26,8.56,8.4,0,6.28-5,8.4-5.14,8.24a8.35,8.35,0,0,0-5.63-2.12c-4.65,0-6.93,3.34-6.93,9.95v9.62c0,5.71-2.93,7.58-6.93,7.58h-1.63c-4.16,0-7.09-1.79-7.09-7.58Z" transform="translate(-5.19 -76.63)"/><path class="cls-1" d="M389.84,160.69c0-4.48,2.12-6.6,6.61-6.6h1.87c4.73,0,6.77,2.12,6.77,6.6V162c0,4.48-2.12,6.6-6.77,6.6h-1.87c-4.4,0-6.61-2.12-6.61-6.6Z" transform="translate(-5.19 -76.63)"/><path class="cls-1" d="M412.27,115.52c0-4.49,3.18-7.34,8.24-7.34,5.22,0,8.48,2.77,8.48,7.34s-3.18,7.42-8.24,7.42C415.53,122.94,412.27,120.08,412.27,115.52Zm.49,19.08c0-5.63,3-7.5,7-7.5h1.63c4.24,0,7,1.71,7,7.5v26.18c0,5.63-2.86,7.58-6.85,7.58h-1.63c-4.24,0-7.18-1.79-7.18-7.58Z" transform="translate(-5.19 -76.63)"/><path class="cls-1" d="M457.12,126.69c13.21,0,21.94,8.48,21.94,21.2s-8.81,21.2-22.18,21.2-22-8.32-22-21.28C434.86,135.17,443.75,126.69,457.12,126.69ZM457,157.1c5.06,0,8.81-3.91,8.81-9.21,0-5.46-3.67-9.38-8.81-9.38s-8.81,3.91-8.81,9.3S451.74,157.1,457,157.1Z" transform="translate(-5.19 -76.63)"/></svg>