<svg xmlns="http://www.w3.org/2000/svg" viewBox="0 0 159.5 192.5"><defs><style>.cls-1{fill:#fff;}</style></defs><title>Asset 3</title><g id="Layer_2" data-name="Layer 2"><g id="Layer_1-2" data-name="Layer 1"><path class="cls-1" d="M107.79,192.5H59.45c-5.64,0-9.9-3-9.9-6.88s4.26-6.89,9.9-6.89h41.44a6.73,6.73,0,0,0,3.63-.88,6.71,6.71,0,0,0-3.63-.89H59.45c-5.64,0-9.9-3-9.9-6.88s4.26-6.88,9.9-6.88h41.44a5.88,5.88,0,0,0,3.9-1.11v-.66H52.55v-6h58.24v6.88c0,3.93-4.26,6.89-9.9,6.89H59.45a6.73,6.73,0,0,0-3.63.88,6.73,6.73,0,0,0,3.63.88h41.44c5.64,0,9.9,3,9.9,6.89s-4.26,6.88-9.9,6.88H59.45a6.71,6.71,0,0,0-3.63.89,6.82,6.82,0,0,0,3.63.88h48.34Z"/><path class="cls-1" d="M112.5,151.25H49.26V133.44c0-3.15,0-4.28-.44-5.11-.58-1.15-2.35-2.93-5.3-5.87-17.64-17.65-23.06-42-14.14-63.53,8.45-20.4,28.18-33.07,51.5-33.07,21.47,0,41,13.7,49.81,34.91,9,21.8,4.37,44.86-12.45,61.69-2.95,2.94-4.72,4.72-5.3,5.87-.42.83-.44,2-.44,5.11Zm-55.24-8H104.5v-9.81c0-8.32.69-9.24,8.08-16.64,14.46-14.46,18.47-34.26,10.72-53-7.54-18.21-24.19-30-42.42-30C60.55,33.86,44.07,44.37,36.77,62c-7.66,18.49-2.91,39.5,12.41,54.81,7.39,7.4,8.08,8.32,8.08,16.64Z"/><path class="cls-1" d="M136.37,140.69l-15.56-15.56c.92-.92,1.83-1.87,2.68-2.83L139.88,137C138.75,138.24,137.57,139.48,136.37,140.69Z"/><path class="cls-1" d="M5,109.18a86.38,86.38,0,0,1-3.1-9.46L23.18,94.1a65.56,65.56,0,0,0,2.3,7Zm151.79-.63L136,101.35a58.87,58.87,0,0,0,2-7l21.53,4.52A81,81,0,0,1,156.8,108.55ZM137.94,70.06a63.84,63.84,0,0,0-1.9-7.15L156.94,56a85.42,85.42,0,0,1,2.56,9.63ZM21.77,69.81,0,66.64a79.64,79.64,0,0,1,2.06-9.82l21.21,5.84A59.72,59.72,0,0,0,21.77,69.81ZM124.09,41.4A64.54,64.54,0,0,0,119,36l15.09-16A87.06,87.06,0,0,1,141,27.27Zm-89.73-.12-16.94-14a80.4,80.4,0,0,1,6.94-7.35L39.33,36A55,55,0,0,0,34.36,41.28ZM60.05,23.83,53.12,3A85.75,85.75,0,0,1,62.75.38l4.42,21.55A64.21,64.21,0,0,0,60.05,23.83Zm38.43-.38a52.69,52.69,0,0,0-6.94-1.87L95.84,0a74.45,74.45,0,0,1,9.81,2.66Z"/><path class="cls-1" d="M25.92,140.69c-1.19-1.2-2.36-2.43-3.48-3.66l16.32-14.76c.87,1,1.79,1.93,2.72,2.86Z"/><path class="cls-1" d="M48.45,78.86a4,4,0,0,1-4-4c0-20.06,22.09-31,33.44-31a4,4,0,0,1,0,8c-7.39,0-25.44,8.06-25.44,23A4,4,0,0,1,48.45,78.86Z"/></g></g></svg>