<svg xmlns="http://www.w3.org/2000/svg" viewBox="0 0 210.61 209.93"><defs><style>.cls-1{fill:#fff;}</style></defs><title>Asset 1</title><g id="Layer_2" data-name="Layer 2"><g id="Layer_1-2" data-name="Layer 1"><path class="cls-1" d="M209.16,195.22l-72.08-72.08a5.85,5.85,0,0,0-.82-.67L118.44,111a67.32,67.32,0,1,0-7.33,7.34l12.32,17.35a5.3,5.3,0,0,0,.54.63l72.11,72.12a5,5,0,0,0,7.08-.06l6.05-6.23A5,5,0,0,0,209.16,195.22ZM67.3,126.6a59.3,59.3,0,1,1,59.3-59.3A59.36,59.36,0,0,1,67.3,126.6Z"/><path class="cls-1" d="M33.11,103.09a3,3,0,0,1-3-3.46c1.05-6.86,5.52-21.5,24.64-21.5,1.51,0,.87-4.79,0-6-2-2.83-6.16-6.7-6.16-13.49,0-4.08-3.31-27.11,18.7-27.11,20.93,0,17.35,23,17.35,27.38,0,6.79-3.18,10.41-5.12,13.22-.86,1.25-1.51,6,0,6,19.35,0,23.89,14.61,25,21.46a3,3,0,0,1-3,3.47Z"/></g></g></svg>